# xmcd
#
# Track frame offsets: 
#        150
#        9135
#        27892
#        44692
#        55710
#        72190
#        88582
#        93935
#        107900
#        119775
#        162617
#
# Disc length: 2336 seconds
#
# Revision: 3
# Processed by: cddbd v1.5.2PL0 Copyright (c) Steve Scherf et al.
# Submitted via: ExactAudioCopy v0.95b4
#
DISCID=8e091e0b
DTITLE=黄沾 - 黄沾 - 笑傲江湖
DYEAR=1990
DGENRE=Other
TTITLE0=道
TTITLE1=沧海一声笑
TTITLE2=焚心以火
TTITLE3=大丈夫日记
TTITLE4=黎明不要来
TTITLE5=路随人茫茫
TTITLE6=冲一冲
TTITLE7=世界真细小
TTITLE8=又是戏一场
TTITLE9=每天圣诞节
TTITLE10=黎明
EXTD=YEAR: 1990
EXTT0=
EXTT1=
EXTT2=
EXTT3=
EXTT4=
EXTT5=
EXTT6=
EXTT7=
EXTT8=
EXTT9=
EXTT10=
PLAYORDER=
